<svg width="121" height="121" viewBox="0 0 121 121" fill="none" xmlns="http://www.w3.org/2000/svg">
<path d="M25.8638 96.799C37.4445 96.799 46.1464 87.119 51.3393 79.4758C50.7201 81.0757 50.3873 82.772 50.3562 84.4872C50.3562 88.9491 53.0283 92.1304 58.2918 92.1304C65.5165 92.1304 73.2403 86.0401 77.2383 79.4758C76.9821 80.3339 76.8414 81.2224 76.8199 82.1176C76.8199 85.2283 78.645 87.1896 82.3657 87.1896C94.0825 87.1896 105.875 67.2296 105.875 49.7753C105.875 36.1729 98.7158 24.199 80.7473 24.199C49.1663 24.199 15.125 61.2754 15.125 85.2284C15.125 94.6361 20.3885 96.799 25.8638 96.799ZM69.8725 48.2881C69.8725 44.9051 71.8387 42.5355 74.7125 42.5355C77.5207 42.5355 79.4869 44.9051 79.4869 48.283C79.4869 51.671 77.5207 54.1061 74.7125 54.1061C71.8387 54.1061 69.8725 51.671 69.8725 48.2881ZM84.8916 48.2881C84.8916 44.9051 86.8578 42.5355 89.7316 42.5355C92.5398 42.5355 94.506 44.9051 94.506 48.283C94.506 51.671 92.5398 54.1061 89.7316 54.1061C86.8578 54.1061 84.8916 51.671 84.8916 48.2881Z" fill="#AB9FF2"/>
</svg>
