<svg width="97" height="95" viewBox="0 0 97 95" fill="none" xmlns="http://www.w3.org/2000/svg">
<g clip-path="url(#clip0_144_1085)">
<path d="M46.5 94C72.1812 94 93 73.1812 93 47.5C93 21.8188 72.1812 1 46.5 1C20.8188 1 0 21.8188 0 47.5C0 73.1812 20.8188 94 46.5 94Z" fill="#F4B731"/>
<path fill-rule="evenodd" clip-rule="evenodd" d="M26.9613 24.25H46.003C57.5844 24.25 66.3642 30.3996 69.6308 39.3451H75.5625V44.7536H70.8805C70.9716 45.608 71.0171 46.478 71.0171 47.3634V47.4971C71.0171 48.493 70.959 49.4714 70.8427 50.4324H75.5625V55.838H69.5175C66.1666 64.6614 57.4566 70.75 46.0059 70.75H26.9613V55.838H20.3438V50.4324H26.9613V44.7536H20.3438V39.348H26.9613V24.25ZM32.2826 55.838V65.8995H46.0001C54.4689 65.8995 60.7581 61.8685 63.6847 55.838H32.2826ZM65.3151 50.4324H32.2826V44.7536H65.3267C65.4468 45.6448 65.5078 46.5593 65.5098 47.4971V47.6279C65.5098 48.5831 65.4449 49.5169 65.3151 50.4295V50.4324ZM46.0059 29.0889C54.5096 29.0889 60.8191 33.2274 63.7282 39.3422H32.2826V29.0918H46.0001L46.0059 29.0889Z" fill="white"/>
</g>
<defs>
<clipPath id="clip0_144_1085">
<rect width="93" height="93" fill="white" transform="translate(0 1)"/>
</clipPath>
</defs>
</svg>
