<svg width="95" height="95" viewBox="0 0 95 95" fill="none" xmlns="http://www.w3.org/2000/svg">
<path fill-rule="evenodd" clip-rule="evenodd" d="M50.1302 7.37423C49.8846 7.04094 49.564 6.77001 49.1945 6.5833C48.825 6.39659 48.4167 6.29932 48.0027 6.29932C47.5887 6.29932 47.1804 6.39659 46.8109 6.5833C46.4413 6.77001 46.1208 7.04094 45.8752 7.37423L20.8315 41.3825C20.497 41.8366 20.3167 42.3858 20.3167 42.9497C20.3167 43.5137 20.497 44.0629 20.8315 44.5169L45.8752 78.5199C46.1208 78.8532 46.4413 79.1242 46.8109 79.3109C47.1804 79.4976 47.5887 79.5949 48.0027 79.5949C48.4167 79.5949 48.825 79.4976 49.1945 79.3109C49.564 79.1242 49.8846 78.8532 50.1302 78.5199L75.1686 44.5169C75.503 44.0629 75.6834 43.5137 75.6834 42.9497C75.6834 42.3858 75.503 41.8366 75.1686 41.3825L50.1302 7.37952V7.37423Z" fill="#8FBFFA"/>
<path fill-rule="evenodd" clip-rule="evenodd" d="M75.676 42.7358L48.4704 51.6687C47.9294 51.8464 47.3454 51.8445 46.8054 51.6634L20.324 42.7623C20.2792 43.3889 20.4591 44.0111 20.8314 44.5171L45.8751 78.5201C46.1208 78.8534 46.4413 79.1243 46.8108 79.3111C47.1804 79.4978 47.5886 79.595 48.0026 79.595C48.4167 79.595 48.8249 79.4978 49.1945 79.3111C49.564 79.1243 49.8845 78.8534 50.1301 78.5201L75.1686 44.5171C75.5458 44.0054 75.726 43.3749 75.676 42.7411V42.7358Z" fill="#2859C5"/>
</svg>
