<svg width="95" height="100" viewBox="0 0 95 100" fill="none" xmlns="http://www.w3.org/2000/svg">
<g clip-path="url(#clip0_144_1077)">
<path d="M45.125 91.625C51.2315 91.625 57.2781 90.4222 62.9198 88.0854C68.5614 85.7486 73.6875 82.3234 78.0055 78.0055C82.3234 73.6875 85.7486 68.5614 88.0854 62.9198C90.4222 57.2781 91.625 51.2315 91.625 45.125C91.625 39.0185 90.4222 32.9719 88.0854 27.3302C85.7486 21.6886 82.3234 16.5625 78.0055 12.2445C73.6875 7.92661 68.5614 4.50144 62.9198 2.1646C57.2781 -0.172243 51.2315 -1.375 45.125 -1.375C32.7924 -1.375 20.965 3.52409 12.2445 12.2445C3.52409 20.965 -1.375 32.7924 -1.375 45.125C-1.375 57.4576 3.52409 69.285 12.2445 78.0055C20.965 86.7259 32.7924 91.625 45.125 91.625Z" fill="#0B53BF"/>
<path d="M53.495 11.2832V17.2714C59.4768 19.0833 64.7176 22.7705 68.4436 27.7887C72.1696 32.8069 74.1833 38.8902 74.1875 45.1404C74.1833 51.3906 72.1696 57.4738 68.4436 62.492C64.7176 67.5102 59.4768 71.1975 53.495 73.0094V79.0027C61.066 77.1403 67.793 72.791 72.5987 66.6514C77.4043 60.5118 80.0106 52.9371 80 45.1404C80.0094 37.3445 77.4026 29.771 72.5971 23.6325C67.7915 17.4939 61.0652 13.1454 53.495 11.2832ZM16.0625 45.1404C16.0667 38.8902 18.0805 32.8069 21.8065 27.7887C25.5324 22.7705 30.7732 19.0833 36.755 17.2714V11.2832C29.1849 13.1454 22.4585 17.4939 17.653 23.6325C12.8474 29.771 10.2406 37.3445 10.25 45.1404C10.2406 52.9362 12.8474 60.5097 17.653 66.6483C22.4585 72.7868 29.1849 77.1353 36.755 78.9975V73.0094C30.7689 71.2048 25.5235 67.5194 21.7963 62.4996C18.0691 57.4798 16.0585 51.3926 16.0625 45.1404Z" fill="white"/>
<path d="M57.6232 51.6247C57.6232 39.7362 38.9922 44.6186 38.9922 38.0518C38.9922 35.6958 40.8832 34.1872 44.4844 34.1872C48.7882 34.1872 50.2711 36.2797 50.7361 39.0955H56.6622C56.1352 33.8048 53.0972 30.4672 48.0339 29.47V24.7993H42.2214V29.3046C36.6672 30.0125 33.1797 33.2416 33.1797 38.0518C33.1797 49.9971 51.8366 45.5176 51.8366 51.9708C51.8366 54.4095 49.4857 56.037 45.5022 56.037C40.2994 56.037 38.5841 53.743 37.9486 50.5758H32.1567C32.5339 56.3728 36.1041 59.9946 42.2162 60.904V65.4816H48.0287V60.9608C53.9859 60.191 57.6232 56.7242 57.6232 51.6247Z" fill="white"/>
</g>
<defs>
<clipPath id="clip0_144_1077">
<rect width="93" height="93" fill="white"/>
</clipPath>
</defs>
</svg>
