<svg width="95" height="95" viewBox="0 0 95 95" fill="none" xmlns="http://www.w3.org/2000/svg">
<g clip-path="url(#clip0_144_1081)">
<path d="M47.5 94C73.1812 94 94 73.1812 94 47.5C94 21.8188 73.1812 1 47.5 1C21.8188 1 1 21.8188 1 47.5C1 73.1812 21.8188 94 47.5 94Z" fill="#26A17B"/>
<path fill-rule="evenodd" clip-rule="evenodd" d="M53.0858 51.5195V51.5137C52.7661 51.5369 51.1182 51.6357 47.4418 51.6357C44.5065 51.6357 42.4402 51.5486 41.7136 51.5137V51.5224C30.4141 51.0254 21.9802 49.0579 21.9802 46.7038C21.9802 44.3498 30.4141 42.3852 41.7136 41.8795V49.5636C42.4518 49.6159 44.5675 49.7409 47.4912 49.7409C50.9991 49.7409 52.7574 49.5956 53.0858 49.5665V41.8853C64.362 42.3881 72.7756 44.3556 72.7756 46.7038C72.7756 49.0579 64.362 51.0196 53.0858 51.5195ZM53.0858 41.0861V34.2099H68.8202V23.7241H25.9792V34.2099H41.7136V41.0832C28.9261 41.6702 19.3093 44.2045 19.3093 47.2386C19.3093 50.2727 28.9261 52.8041 41.7136 53.394V75.4292H53.0858V53.3882C65.8529 52.8011 75.4464 50.2698 75.4464 47.2386C75.4464 44.2074 65.8529 41.676 53.0858 41.0861Z" fill="white"/>
</g>
<defs>
<clipPath id="clip0_144_1081">
<rect width="93" height="93" fill="white" transform="translate(1 1)"/>
</clipPath>
</defs>
</svg>
